# File exported by Houdini 19.5.569 (www.sidefx.com)
# 100 points
# 486 vertices
# 162 primitives
# Bounds: [-5, 0, -5] to [5, 0, 5]
g 
v -5 0 -5
v -3.88888884 0 -5
v -2.77777767 0 -5
v -1.66666651 0 -5
v -0.555555344 0 -5
v 0.55555582 0 -5
v 1.66666698 0 -5
v 2.77777815 0 -5
v 3.88888931 0 -5
v 5 0 -5
v -5 0 -3.88888884
v -3.88888884 0 -3.88888884
v -2.77777767 0 -3.88888884
v -1.66666651 0 -3.88888884
v -0.555555344 0 -3.88888884
v 0.55555582 0 -3.88888884
v 1.66666698 0 -3.88888884
v 2.77777815 0 -3.88888884
v 3.88888931 0 -3.88888884
v 5 0 -3.88888884
v -5 0 -2.77777767
v -3.88888884 0 -2.77777767
v -2.77777767 0 -2.77777767
v -1.66666651 0 -2.77777767
v -0.555555344 0 -2.77777767
v 0.55555582 0 -2.77777767
v 1.66666698 0 -2.77777767
v 2.77777815 0 -2.77777767
v 3.88888931 0 -2.77777767
v 5 0 -2.77777767
v -5 0 -1.66666651
v -3.88888884 0 -1.66666651
v -2.77777767 0 -1.66666651
v -1.66666651 0 -1.66666651
v -0.555555344 0 -1.66666651
v 0.55555582 0 -1.66666651
v 1.66666698 0 -1.66666651
v 2.77777815 0 -1.66666651
v 3.88888931 0 -1.66666651
v 5 0 -1.66666651
v -5 0 -0.555555344
v -3.88888884 0 -0.555555344
v -2.77777767 0 -0.555555344
v -1.66666651 0 -0.555555344
v -0.555555344 0 -0.555555344
v 0.55555582 0 -0.555555344
v 1.66666698 0 -0.555555344
v 2.77777815 0 -0.555555344
v 3.88888931 0 -0.555555344
v 5 0 -0.555555344
v -5 0 0.55555582
v -3.88888884 0 0.55555582
v -2.77777767 0 0.55555582
v -1.66666651 0 0.55555582
v -0.555555344 0 0.55555582
v 0.55555582 0 0.55555582
v 1.66666698 0 0.55555582
v 2.77777815 0 0.55555582
v 3.88888931 0 0.55555582
v 5 0 0.55555582
v -5 0 1.66666698
v -3.88888884 0 1.66666698
v -2.77777767 0 1.66666698
v -1.66666651 0 1.66666698
v -0.555555344 0 1.66666698
v 0.55555582 0 1.66666698
v 1.66666698 0 1.66666698
v 2.77777815 0 1.66666698
v 3.88888931 0 1.66666698
v 5 0 1.66666698
v -5 0 2.77777815
v -3.88888884 0 2.77777815
v -2.77777767 0 2.77777815
v -1.66666651 0 2.77777815
v -0.555555344 0 2.77777815
v 0.55555582 0 2.77777815
v 1.66666698 0 2.77777815
v 2.77777815 0 2.77777815
v 3.88888931 0 2.77777815
v 5 0 2.77777815
v -5 0 3.88888931
v -3.88888884 0 3.88888931
v -2.77777767 0 3.88888931
v -1.66666651 0 3.88888931
v -0.555555344 0 3.88888931
v 0.55555582 0 3.88888931
v 1.66666698 0 3.88888931
v 2.77777815 0 3.88888931
v 3.88888931 0 3.88888931
v 5 0 3.88888931
v -5 0 5
v -3.88888884 0 5
v -2.77777767 0 5
v -1.66666651 0 5
v -0.555555344 0 5
v 0.55555582 0 5
v 1.66666698 0 5
v 2.77777815 0 5
v 3.88888931 0 5
v 5 0 5
vt 0 0 0
vt 0.111111119 0.111111119 0
vt 0.111111119 0 0
vt 0.222222239 0.111111119 0
vt 0.222222239 0 0
vt 0.333333343 0.111111119 0
vt 0.333333343 0 0
vt 0.444444478 0.111111119 0
vt 0.444444478 0 0
vt 0.555555582 0.111111119 0
vt 0.555555582 0 0
vt 0.666666687 0.111111119 0
vt 0.666666687 0 0
vt 0.777777851 0.111111119 0
vt 0.777777851 0 0
vt 0.888888955 0.111111119 0
vt 0.888888955 0 0
vt 1 0.111111119 0
vt 1 0 0
vt 0 0.111111119 0
vt 0.111111119 0.222222239 0
vt 0.222222239 0.222222239 0
vt 0.333333343 0.222222239 0
vt 0.444444478 0.222222239 0
vt 0.555555582 0.222222239 0
vt 0.666666687 0.222222239 0
vt 0.777777851 0.222222239 0
vt 0.888888955 0.222222239 0
vt 1 0.222222239 0
vt 0 0.222222239 0
vt 0.111111119 0.333333343 0
vt 0.222222239 0.333333343 0
vt 0.333333343 0.333333343 0
vt 0.444444478 0.333333343 0
vt 0.555555582 0.333333343 0
vt 0.666666687 0.333333343 0
vt 0.777777851 0.333333343 0
vt 0.888888955 0.333333343 0
vt 1 0.333333343 0
vt 0 0.333333343 0
vt 0.111111119 0.444444478 0
vt 0.222222239 0.444444478 0
vt 0.333333343 0.444444478 0
vt 0.444444478 0.444444478 0
vt 0.555555582 0.444444478 0
vt 0.666666687 0.444444478 0
vt 0.777777851 0.444444478 0
vt 0.888888955 0.444444478 0
vt 1 0.444444478 0
vt 0 0.444444478 0
vt 0.111111119 0.555555582 0
vt 0.222222239 0.555555582 0
vt 0.333333343 0.555555582 0
vt 0.444444478 0.555555582 0
vt 0.555555582 0.555555582 0
vt 0.666666687 0.555555582 0
vt 0.777777851 0.555555582 0
vt 0.888888955 0.555555582 0
vt 1 0.555555582 0
vt 0 0.555555582 0
vt 0.111111119 0.666666687 0
vt 0.222222239 0.666666687 0
vt 0.333333343 0.666666687 0
vt 0.444444478 0.666666687 0
vt 0.555555582 0.666666687 0
vt 0.666666687 0.666666687 0
vt 0.777777851 0.666666687 0
vt 0.888888955 0.666666687 0
vt 1 0.666666687 0
vt 0 0.666666687 0
vt 0.111111119 0.777777851 0
vt 0.222222239 0.777777851 0
vt 0.333333343 0.777777851 0
vt 0.444444478 0.777777851 0
vt 0.555555582 0.777777851 0
vt 0.666666687 0.777777851 0
vt 0.777777851 0.777777851 0
vt 0.888888955 0.777777851 0
vt 1 0.777777851 0
vt 0 0.777777851 0
vt 0.111111119 0.888888955 0
vt 0.222222239 0.888888955 0
vt 0.333333343 0.888888955 0
vt 0.444444478 0.888888955 0
vt 0.555555582 0.888888955 0
vt 0.666666687 0.888888955 0
vt 0.777777851 0.888888955 0
vt 0.888888955 0.888888955 0
vt 1 0.888888955 0
vt 0 0.888888955 0
vt 0.111111119 1 0
vt 0.222222239 1 0
vt 0.333333343 1 0
vt 0.444444478 1 0
vt 0.555555582 1 0
vt 0.666666687 1 0
vt 0.777777851 1 0
vt 0.888888955 1 0
vt 1 1 0
vt 0 1 0
vn -0 1 -0
vn 0 1 0
vn -0 1 -0
vn -0 1 -0
vn 0 1 0
vn -0 1 -0
vn -0 1 -0
vn 0 1 0
vn -0 1 -0
vn -0 1 -0
vn 0 1 0
vn -0 1 -0
vn -0 1 -0
vn 0 1 0
vn -0 1 -0
vn -0 1 -0
vn 0 1 0
vn -0 1 -0
vn -0 1 -0
vn 0 1 0
vn -0 1 -0
vn -0 1 -0
vn 0 1 0
vn -0 1 -0
vn -0 1 -0
vn -0 1 -0
vn -0 1 -0
vn 0 1 0
vn 0 1 0
vn 0 1 0
vn 0 1 0
vn 0 1 0
vn 0 1 0
vn 0 1 0
vn 0 1 0
vn 0 1 0
vn 0 1 0
vn 0 1 0
vn 0 1 0
vn 0 1 0
vn 0 1 0
vn 0 1 0
vn 0 1 0
vn 0 1 0
vn 0 1 0
vn 0 1 0
vn 0 1 0
vn 0 1 0
vn 0 1 0
vn 0 1 0
vn 0 1 0
vn 0 1 0
vn -0 1 -0
vn -0 1 -0
vn 0 1 0
vn 0 1 0
vn 0 1 0
vn 0 1 0
vn 0 1 0
vn 0 1 0
vn 0 1 0
vn 0 1 0
vn 0 1 0
vn 0 1 0
vn 0 1 0
vn 0 1 0
vn 0 1 0
vn 0 1 0
vn 0 1 0
vn 0 1 0
vn 0 1 0
vn 0 1 0
vn 0 1 0
vn 0 1 0
vn 0 1 0
vn 0 1 0
vn 0 1 0
vn 0 1 0
vn 0 1 0
vn -0 1 -0
vn -0 1 -0
vn 0 1 0
vn 0 1 0
vn 0 1 0
vn 0 1 0
vn 0 1 0
vn 0 1 0
vn 0 1 0
vn 0 1 0
vn 0 1 0
vn 0 1 0
vn 0 1 0
vn 0 1 0
vn 0 1 0
vn 0 1 0
vn 0 1 0
vn 0 1 0
vn 0 1 0
vn 0 1 0
vn 0 1 0
vn 0 1 0
vn 0 1 0
vn 0 1 0
vn 0 1 0
vn 0 1 0
vn 0 1 0
vn -0 1 -0
vn -0 1 -0
vn 0 1 0
vn 0 1 0
vn 0 1 0
vn 0 1 0
vn 0 1 0
vn 0 1 0
vn 0 1 0
vn 0 1 0
vn 0 1 0
vn 0 1 0
vn 0 1 0
vn 0 1 0
vn 0 1 0
vn 0 1 0
vn 0 1 0
vn 0 1 0
vn 0 1 0
vn 0 1 0
vn 0 1 0
vn 0 1 0
vn 0 1 0
vn 0 1 0
vn 0 1 0
vn 0 1 0
vn 0 1 0
vn -0 1 -0
vn -0 1 -0
vn 0 1 0
vn 0 1 0
vn 0 1 0
vn 0 1 0
vn 0 1 0
vn 0 1 0
vn 0 1 0
vn 0 1 0
vn 0 1 0
vn 0 1 0
vn 0 1 0
vn 0 1 0
vn 0 1 0
vn 0 1 0
vn 0 1 0
vn 0 1 0
vn 0 1 0
vn 0 1 0
vn 0 1 0
vn 0 1 0
vn 0 1 0
vn 0 1 0
vn 0 1 0
vn 0 1 0
vn 0 1 0
vn -0 1 -0
vn -0 1 -0
vn 0 1 0
vn 0 1 0
vn 0 1 0
vn 0 1 0
vn 0 1 0
vn 0 1 0
vn 0 1 0
vn 0 1 0
vn 0 1 0
vn 0 1 0
vn 0 1 0
vn 0 1 0
vn 0 1 0
vn 0 1 0
vn 0 1 0
vn 0 1 0
vn 0 1 0
vn 0 1 0
vn 0 1 0
vn 0 1 0
vn 0 1 0
vn 0 1 0
vn 0 1 0
vn 0 1 0
vn 0 1 0
vn -0 1 -0
vn -0 1 -0
vn 0 1 0
vn 0 1 0
vn 0 1 0
vn 0 1 0
vn 0 1 0
vn 0 1 0
vn 0 1 0
vn 0 1 0
vn 0 1 0
vn 0 1 0
vn 0 1 0
vn 0 1 0
vn 0 1 0
vn 0 1 0
vn 0 1 0
vn 0 1 0
vn 0 1 0
vn 0 1 0
vn 0 1 0
vn 0 1 0
vn 0 1 0
vn 0 1 0
vn 0 1 0
vn 0 1 0
vn 0 1 0
vn -0 1 -0
vn -0 1 -0
vn 0 1 0
vn 0 1 0
vn 0 1 0
vn 0 1 0
vn 0 1 0
vn 0 1 0
vn 0 1 0
vn 0 1 0
vn 0 1 0
vn 0 1 0
vn 0 1 0
vn 0 1 0
vn 0 1 0
vn 0 1 0
vn 0 1 0
vn 0 1 0
vn 0 1 0
vn 0 1 0
vn 0 1 0
vn 0 1 0
vn 0 1 0
vn 0 1 0
vn 0 1 0
vn 0 1 0
vn 0 1 0
vn -0 1 -0
vn -0 1 -0
vn 0 1 -0
vn 0 1 0
vn 0 1 0
vn 0 1 0
vn 0 1 0
vn 0 1 0
vn 0 1 0
vn 0 1 0
vn 0 1 0
vn 0 1 0
vn 0 1 0
vn 0 1 0
vn 0 1 0
vn 0 1 0
vn 0 1 0
vn 0 1 0
vn 0 1 0
vn 0 1 0
vn 0 1 0
vn 0 1 0
vn 0 1 0
vn 0 1 0
vn 0 1 0
vn 0 1 0
vn 0 1 0
vn 0 1 0
vn 0 1 0
vn -0 1 -0
vn 0 1 0
vn 0 1 0
vn 0 1 0
vn 0 1 0
vn 0 1 0
vn 0 1 0
vn 0 1 0
vn 0 1 0
vn 0 1 0
vn 0 1 0
vn 0 1 0
vn 0 1 0
vn 0 1 0
vn 0 1 0
vn 0 1 0
vn 0 1 0
vn 0 1 0
vn 0 1 0
vn 0 1 0
vn 0 1 0
vn 0 1 0
vn 0 1 0
vn 0 1 0
vn 0 1 0
vn 0 1 0
vn 0 1 0
vn -0 1 -0
vn 0 1 0
vn 0 1 0
vn 0 1 0
vn 0 1 0
vn 0 1 0
vn 0 1 0
vn 0 1 0
vn 0 1 0
vn 0 1 0
vn 0 1 0
vn 0 1 0
vn 0 1 0
vn 0 1 0
vn 0 1 0
vn 0 1 0
vn 0 1 0
vn 0 1 0
vn 0 1 0
vn 0 1 0
vn 0 1 0
vn 0 1 0
vn 0 1 0
vn 0 1 0
vn 0 1 0
vn 0 1 0
vn 0 1 0
vn -0 1 -0
vn 0 1 0
vn 0 1 0
vn 0 1 0
vn 0 1 0
vn 0 1 0
vn 0 1 0
vn 0 1 0
vn 0 1 0
vn 0 1 0
vn 0 1 0
vn 0 1 0
vn 0 1 0
vn 0 1 0
vn 0 1 0
vn 0 1 0
vn 0 1 0
vn 0 1 0
vn 0 1 0
vn 0 1 0
vn 0 1 0
vn 0 1 0
vn 0 1 0
vn 0 1 0
vn 0 1 0
vn 0 1 0
vn 0 1 0
vn -0 1 -0
vn 0 1 0
vn 0 1 0
vn 0 1 0
vn 0 1 0
vn 0 1 0
vn 0 1 0
vn 0 1 0
vn 0 1 0
vn 0 1 0
vn 0 1 0
vn 0 1 0
vn 0 1 0
vn 0 1 0
vn 0 1 0
vn 0 1 0
vn 0 1 0
vn 0 1 0
vn 0 1 0
vn 0 1 0
vn 0 1 0
vn 0 1 0
vn 0 1 0
vn 0 1 0
vn 0 1 0
vn 0 1 0
vn 0 1 0
vn -0 1 -0
vn 0 1 0
vn 0 1 0
vn 0 1 0
vn 0 1 0
vn 0 1 0
vn 0 1 0
vn 0 1 0
vn 0 1 0
vn 0 1 0
vn 0 1 0
vn 0 1 0
vn 0 1 0
vn 0 1 0
vn 0 1 0
vn 0 1 0
vn 0 1 0
vn 0 1 0
vn 0 1 0
vn 0 1 0
vn 0 1 0
vn 0 1 0
vn 0 1 0
vn 0 1 0
vn 0 1 0
vn 0 1 0
vn 0 1 0
vn -0 1 -0
vn 0 1 0
vn 0 1 0
vn 0 1 0
vn 0 1 0
vn 0 1 0
vn 0 1 0
vn 0 1 0
vn 0 1 0
vn 0 1 0
vn 0 1 0
vn 0 1 0
vn 0 1 0
vn 0 1 0
vn 0 1 0
vn 0 1 0
vn 0 1 0
vn 0 1 0
vn 0 1 0
vn 0 1 0
vn 0 1 0
vn 0 1 0
vn 0 1 0
vn 0 1 0
vn 0 1 0
vn 0 1 0
vn 0 1 0
vn -0 1 -0
vn 0 1 0
vn 0 1 0
vn 0 1 0
vn 0 1 0
vn 0 1 0
vn 0 1 0
vn 0 1 0
vn 0 1 0
vn 0 1 0
vn 0 1 0
vn 0 1 0
vn 0 1 0
vn 0 1 0
vn 0 1 0
vn 0 1 0
vn 0 1 0
vn 0 1 0
vn 0 1 0
vn 0 1 0
vn 0 1 0
vn 0 1 0
vn 0 1 0
vn 0 1 0
vn 0 1 0
vn 0 1 0
vn 0 1 0
vn -0 1 -0
vn -0 1 -0
vn 0 1 0
vn 0 1 0
vn -0 1 -0
vn 0 1 0
vn 0 1 0
vn -0 1 -0
vn 0 1 0
vn 0 1 0
vn -0 1 -0
vn 0 1 0
vn 0 1 0
vn -0 1 -0
vn 0 1 0
vn 0 1 0
vn -0 1 -0
vn 0 1 0
vn 0 1 0
vn -0 1 -0
vn 0 1 0
vn 0 1 0
vn -0 1 -0
vn 0 1 0
vn 0 1 0
vn -0 1 -0
vn 0 1 0
g 
f 1/1/1 12/2/2 2/3/3
f 2/3/4 13/4/5 3/5/6
f 3/5/7 14/6/8 4/7/9
f 4/7/10 15/8/11 5/9/12
f 5/9/13 16/10/14 6/11/15
f 6/11/16 17/12/17 7/13/18
f 7/13/19 18/14/20 8/15/21
f 8/15/22 19/16/23 9/17/24
f 9/17/25 20/18/26 10/19/27
f 11/20/28 22/21/29 12/2/30
f 12/2/31 23/22/32 13/4/33
f 13/4/34 24/23/35 14/6/36
f 14/6/37 25/24/38 15/8/39
f 15/8/40 26/25/41 16/10/42
f 16/10/43 27/26/44 17/12/45
f 17/12/46 28/27/47 18/14/48
f 18/14/49 29/28/50 19/16/51
f 19/16/52 30/29/53 20/18/54
f 21/30/55 32/31/56 22/21/57
f 22/21/58 33/32/59 23/22/60
f 23/22/61 34/33/62 24/23/63
f 24/23/64 35/34/65 25/24/66
f 25/24/67 36/35/68 26/25/69
f 26/25/70 37/36/71 27/26/72
f 27/26/73 38/37/74 28/27/75
f 28/27/76 39/38/77 29/28/78
f 29/28/79 40/39/80 30/29/81
f 31/40/82 42/41/83 32/31/84
f 32/31/85 43/42/86 33/32/87
f 33/32/88 44/43/89 34/33/90
f 34/33/91 45/44/92 35/34/93
f 35/34/94 46/45/95 36/35/96
f 36/35/97 47/46/98 37/36/99
f 37/36/100 48/47/101 38/37/102
f 38/37/103 49/48/104 39/38/105
f 39/38/106 50/49/107 40/39/108
f 41/50/109 52/51/110 42/41/111
f 42/41/112 53/52/113 43/42/114
f 43/42/115 54/53/116 44/43/117
f 44/43/118 55/54/119 45/44/120
f 45/44/121 56/55/122 46/45/123
f 46/45/124 57/56/125 47/46/126
f 47/46/127 58/57/128 48/47/129
f 48/47/130 59/58/131 49/48/132
f 49/48/133 60/59/134 50/49/135
f 51/60/136 62/61/137 52/51/138
f 52/51/139 63/62/140 53/52/141
f 53/52/142 64/63/143 54/53/144
f 54/53/145 65/64/146 55/54/147
f 55/54/148 66/65/149 56/55/150
f 56/55/151 67/66/152 57/56/153
f 57/56/154 68/67/155 58/57/156
f 58/57/157 69/68/158 59/58/159
f 59/58/160 70/69/161 60/59/162
f 61/70/163 72/71/164 62/61/165
f 62/61/166 73/72/167 63/62/168
f 63/62/169 74/73/170 64/63/171
f 64/63/172 75/74/173 65/64/174
f 65/64/175 76/75/176 66/65/177
f 66/65/178 77/76/179 67/66/180
f 67/66/181 78/77/182 68/67/183
f 68/67/184 79/78/185 69/68/186
f 69/68/187 80/79/188 70/69/189
f 71/80/190 82/81/191 72/71/192
f 72/71/193 83/82/194 73/72/195
f 73/72/196 84/83/197 74/73/198
f 74/73/199 85/84/200 75/74/201
f 75/74/202 86/85/203 76/75/204
f 76/75/205 87/86/206 77/76/207
f 77/76/208 88/87/209 78/77/210
f 78/77/211 89/88/212 79/78/213
f 79/78/214 90/89/215 80/79/216
f 81/90/217 92/91/218 82/81/219
f 82/81/220 93/92/221 83/82/222
f 83/82/223 94/93/224 84/83/225
f 84/83/226 95/94/227 85/84/228
f 85/84/229 96/95/230 86/85/231
f 86/85/232 97/96/233 87/86/234
f 87/86/235 98/97/236 88/87/237
f 88/87/238 99/98/239 89/88/240
f 89/88/241 100/99/242 90/89/243
f 100/99/244 89/88/245 99/98/246
f 99/98/247 88/87/248 98/97/249
f 98/97/250 87/86/251 97/96/252
f 97/96/253 86/85/254 96/95/255
f 96/95/256 85/84/257 95/94/258
f 95/94/259 84/83/260 94/93/261
f 94/93/262 83/82/263 93/92/264
f 93/92/265 82/81/266 92/91/267
f 92/91/268 81/90/269 91/100/270
f 90/89/271 79/78/272 89/88/273
f 89/88/274 78/77/275 88/87/276
f 88/87/277 77/76/278 87/86/279
f 87/86/280 76/75/281 86/85/282
f 86/85/283 75/74/284 85/84/285
f 85/84/286 74/73/287 84/83/288
f 84/83/289 73/72/290 83/82/291
f 83/82/292 72/71/293 82/81/294
f 82/81/295 71/80/296 81/90/297
f 80/79/298 69/68/299 79/78/300
f 79/78/301 68/67/302 78/77/303
f 78/77/304 67/66/305 77/76/306
f 77/76/307 66/65/308 76/75/309
f 76/75/310 65/64/311 75/74/312
f 75/74/313 64/63/314 74/73/315
f 74/73/316 63/62/317 73/72/318
f 73/72/319 62/61/320 72/71/321
f 72/71/322 61/70/323 71/80/324
f 70/69/325 59/58/326 69/68/327
f 69/68/328 58/57/329 68/67/330
f 68/67/331 57/56/332 67/66/333
f 67/66/334 56/55/335 66/65/336
f 66/65/337 55/54/338 65/64/339
f 65/64/340 54/53/341 64/63/342
f 64/63/343 53/52/344 63/62/345
f 63/62/346 52/51/347 62/61/348
f 62/61/349 51/60/350 61/70/351
f 60/59/352 49/48/353 59/58/354
f 59/58/355 48/47/356 58/57/357
f 58/57/358 47/46/359 57/56/360
f 57/56/361 46/45/362 56/55/363
f 56/55/364 45/44/365 55/54/366
f 55/54/367 44/43/368 54/53/369
f 54/53/370 43/42/371 53/52/372
f 53/52/373 42/41/374 52/51/375
f 52/51/376 41/50/377 51/60/378
f 50/49/379 39/38/380 49/48/381
f 49/48/382 38/37/383 48/47/384
f 48/47/385 37/36/386 47/46/387
f 47/46/388 36/35/389 46/45/390
f 46/45/391 35/34/392 45/44/393
f 45/44/394 34/33/395 44/43/396
f 44/43/397 33/32/398 43/42/399
f 43/42/400 32/31/401 42/41/402
f 42/41/403 31/40/404 41/50/405
f 40/39/406 29/28/407 39/38/408
f 39/38/409 28/27/410 38/37/411
f 38/37/412 27/26/413 37/36/414
f 37/36/415 26/25/416 36/35/417
f 36/35/418 25/24/419 35/34/420
f 35/34/421 24/23/422 34/33/423
f 34/33/424 23/22/425 33/32/426
f 33/32/427 22/21/428 32/31/429
f 32/31/430 21/30/431 31/40/432
f 30/29/433 19/16/434 29/28/435
f 29/28/436 18/14/437 28/27/438
f 28/27/439 17/12/440 27/26/441
f 27/26/442 16/10/443 26/25/444
f 26/25/445 15/8/446 25/24/447
f 25/24/448 14/6/449 24/23/450
f 24/23/451 13/4/452 23/22/453
f 23/22/454 12/2/455 22/21/456
f 22/21/457 11/20/458 21/30/459
f 20/18/460 9/17/461 19/16/462
f 19/16/463 8/15/464 18/14/465
f 18/14/466 7/13/467 17/12/468
f 17/12/469 6/11/470 16/10/471
f 16/10/472 5/9/473 15/8/474
f 15/8/475 4/7/476 14/6/477
f 14/6/478 3/5/479 13/4/480
f 13/4/481 2/3/482 12/2/483
f 12/2/484 1/1/485 11/20/486
