# File exported by Houdini 19.5.569 (www.sidefx.com)
# 42 points
# 240 vertices
# 80 primitives
# Bounds: [-0.5, -0.4755283, -0.5] to [0.5, 0.4755283, 0.5]
g 
v 0 0 -0.5
v 0 0.262865603 -0.425325394
v 0.249999985 0.0812300518 -0.425325394
v 0 0.44721368 -0.223606572
v 0.249999985 0.344095677 -0.262865305
v 0.425325423 0.138196841 -0.223606601
v 0.154508501 -0.212662712 -0.425325423
v 0.404508621 -0.131432697 -0.262865394
v 0.262865603 -0.361803472 -0.223606631
v -0.154508501 -0.212662712 -0.425325423
v 0 -0.425325513 -0.262865365
v -0.262865603 -0.361803472 -0.223606631
v -0.249999985 0.0812300518 -0.425325394
v -0.404508621 -0.131432697 -0.262865394
v -0.425325423 0.138196841 -0.223606601
v -0.249999985 0.344095677 -0.262865305
v -0.154508486 0.4755283 0
v -0.404508412 0.293892711 0
v -0.262865603 0.361803472 0.223606631
v -0.5 0 0
v -0.404508412 -0.293892711 0
v -0.425325423 -0.138196841 0.223606601
v -0.154508486 -0.4755283 0
v 0.154508486 -0.4755283 0
v 0 -0.44721368 0.223606572
v 0.404508412 -0.293892711 0
v 0.5 0 0
v 0.425325423 -0.138196841 0.223606601
v 0.404508412 0.293892711 0
v 0.154508486 0.4755283 0
v 0.262865603 0.361803472 0.223606631
v 0 0.425325513 0.262865365
v -0.404508621 0.131432697 0.262865394
v -0.249999985 -0.344095677 0.262865305
v 0.249999985 -0.344095677 0.262865305
v 0.404508621 0.131432697 0.262865394
v 0 0 0.5
v 0.154508501 0.212662712 0.425325423
v -0.154508501 0.212662712 0.425325423
v 0.249999985 -0.0812300518 0.425325394
v 0 -0.262865603 0.425325394
v -0.249999985 -0.0812300518 0.425325394
vt 0 0.186788276 0
vt 0.107980572 0.170277223 0
vt 0.0957234874 0.25912267 0
vt 0.000887477072 0.332616895 0
vt 0.10906098 0.347812414 0
vt 0.918349147 0.254116535 0
vt 0.998564541 0.178517744 0
vt 0.999478698 0.328733325 0
vt 0.0836938843 0.0625186414 0
vt 0.876874983 0.17336221 0
vt 0.813234508 0.106443822 0
vt 0.913922369 0.0560369976 0
vt 0.1881174 0.126743242 0
vt 0.768552244 0 0
vt 0.280251265 0.107059941 0
vt 0.224222615 0.00662540458 0
vt 0.175139323 0.216826454 0
vt 0.256345212 0.18875289 0
vt 0.234482273 0.25827837 0
vt 0.175648227 0.300449371 0
vt 0.189721689 0.390367806 0
vt 0.257189691 0.3275325 0
vt 0.28208819 0.408928275 0
vt 0.309962451 0.257818907 0
vt 0.352371663 0.171801731 0
vt 0.401581794 0.257261276 0
vt 0.38174814 0.0424381569 0
vt 0.718906462 0.118215621 0
vt 0.628139019 0.158382803 0
vt 0.612473428 0.0372066237 0
vt 0.785683274 0.185670152 0
vt 0.835987389 0.254617661 0
vt 0.762528002 0.255064636 0
vt 0.877861083 0.335369527 0
vt 0.0860875174 0.455858529 0
vt 0.815039814 0.403057516 0
vt 0.916333616 0.452235073 0
vt 0.227285981 0.510037243 0
vt 0.771656454 0.510037243 0
vt 0.35341534 0.343313485 0
vt 0.495895118 0.169823304 0
vt 0.701016605 0.211382136 0
vt 0.786526203 0.324172258 0
vt 0.615136206 0.474733055 0
vt 0.629325747 0.353375107 0
vt 0.720575333 0.392434597 0
vt 0.384364128 0.472310036 0
vt 0.701552808 0.299492627 0
vt 0.611483634 0.255983949 0
vt 0.496952355 0.34354493 0
vn 0.50000006 0.162460059 -0.850650728
vn 5.25619104e-09 0 -1
vn -5.30585753e-09 0.525731266 -0.850650609
vn 0.49999994 0.688191235 -0.525730848
vn -5.30585753e-09 0.525731266 -0.850650609
vn 0 0.894427299 -0.447213382
vn 0.850650787 0.276393592 -0.447213292
vn 0.50000006 0.162460059 -0.850650728
vn 0.49999994 0.688191235 -0.525730848
vn 0.50000006 0.162460059 -0.850650728
vn -5.30585753e-09 0.525731266 -0.850650609
vn 0.49999994 0.688191235 -0.525730848
vn 0.309017062 -0.425325423 -0.850650728
vn 5.25619104e-09 0 -1
vn 0.50000006 0.162460059 -0.850650728
vn 0.809017122 -0.262865365 -0.525730908
vn 0.50000006 0.162460059 -0.850650728
vn 0.850650787 0.276393592 -0.447213292
vn 0.525731266 -0.723606825 -0.447213501
vn 0.309017062 -0.425325423 -0.850650728
vn 0.809017122 -0.262865365 -0.525730908
vn 0.309017062 -0.425325423 -0.850650728
vn 0.50000006 0.162460059 -0.850650728
vn 0.809017122 -0.262865365 -0.525730908
vn -0.309017062 -0.425325423 -0.850650787
vn 5.25619104e-09 0 -1
vn 0.309017062 -0.425325423 -0.850650728
vn 0 -0.850650966 -0.525730908
vn 0.309017062 -0.425325423 -0.850650728
vn 0.525731266 -0.723606825 -0.447213501
vn -0.525731266 -0.723606825 -0.447213501
vn -0.309017062 -0.425325423 -0.850650787
vn 0 -0.850650966 -0.525730908
vn -0.309017062 -0.425325423 -0.850650787
vn 0.309017062 -0.425325423 -0.850650728
vn 0 -0.850650966 -0.525730908
vn -0.50000006 0.162460059 -0.850650728
vn 5.25619104e-09 0 -1
vn -0.309017062 -0.425325423 -0.850650787
vn -0.809017122 -0.262865365 -0.525730908
vn -0.309017062 -0.425325423 -0.850650787
vn -0.525731266 -0.723606825 -0.447213501
vn -0.850650787 0.276393592 -0.447213292
vn -0.50000006 0.162460059 -0.850650728
vn -0.809017122 -0.262865365 -0.525730908
vn -0.50000006 0.162460059 -0.850650728
vn -0.309017062 -0.425325423 -0.850650787
vn -0.809017122 -0.262865365 -0.525730908
vn -5.30585753e-09 0.525731266 -0.850650609
vn 5.25619104e-09 0 -1
vn -0.50000006 0.162460059 -0.850650728
vn -0.49999994 0.688191235 -0.525730789
vn -0.50000006 0.162460059 -0.850650728
vn -0.850650787 0.276393592 -0.447213292
vn 0 0.894427299 -0.447213382
vn -5.30585753e-09 0.525731266 -0.850650609
vn -0.49999994 0.688191235 -0.525730789
vn -5.30585753e-09 0.525731266 -0.850650609
vn -0.50000006 0.162460059 -0.850650728
vn -0.49999994 0.688191235 -0.525730789
vn -0.309016943 0.95105648 4.50997817e-08
vn 0 0.894427299 -0.447213382
vn -0.49999994 0.688191235 -0.525730789
vn -0.809016943 0.587785304 8.48936992e-08
vn -0.49999994 0.688191235 -0.525730789
vn -0.850650787 0.276393592 -0.447213292
vn -0.525731266 0.723606825 0.447213501
vn -0.309016943 0.95105648 4.50997817e-08
vn -0.809016943 0.587785304 8.48936992e-08
vn -0.309016943 0.95105648 4.50997817e-08
vn -0.49999994 0.688191235 -0.525730789
vn -0.809016943 0.587785304 8.48936992e-08
vn -1 0 -2.65292832e-09
vn -0.850650787 0.276393592 -0.447213292
vn -0.809017122 -0.262865365 -0.525730908
vn -0.809016943 -0.587785363 -8.22407742e-08
vn -0.809017122 -0.262865365 -0.525730908
vn -0.525731266 -0.723606825 -0.447213501
vn -0.850650847 -0.276393622 0.447213382
vn -1 0 -2.65292832e-09
vn -0.809016943 -0.587785363 -8.22407742e-08
vn -1 0 -2.65292832e-09
vn -0.809017122 -0.262865365 -0.525730908
vn -0.809016943 -0.587785363 -8.22407742e-08
vn -0.309016943 -0.95105654 -3.97939282e-08
vn -0.525731266 -0.723606825 -0.447213501
vn 0 -0.850650966 -0.525730908
vn 0.309016943 -0.95105654 -3.97939282e-08
vn 0 -0.850650966 -0.525730908
vn 0.525731266 -0.723606825 -0.447213501
vn 0 -0.894427299 0.447213382
vn -0.309016943 -0.95105654 -3.97939282e-08
vn 0.309016943 -0.95105654 -3.97939282e-08
vn -0.309016943 -0.95105654 -3.97939282e-08
vn 0 -0.850650966 -0.525730908
vn 0.309016943 -0.95105654 -3.97939282e-08
vn 0.809016943 -0.587785363 -8.22407742e-08
vn 0.525731266 -0.723606825 -0.447213501
vn 0.809017122 -0.262865365 -0.525730908
vn 1 0 -2.65292832e-09
vn 0.809017122 -0.262865365 -0.525730908
vn 0.850650787 0.276393592 -0.447213292
vn 0.850650847 -0.276393622 0.447213382
vn 0.809016943 -0.587785363 -8.22407742e-08
vn 1 0 -2.65292832e-09
vn 0.809016943 -0.587785363 -8.22407742e-08
vn 0.809017122 -0.262865365 -0.525730908
vn 1 0 -2.65292832e-09
vn 0.809016943 0.587785304 8.48936992e-08
vn 0.850650787 0.276393592 -0.447213292
vn 0.49999994 0.688191235 -0.525730848
vn 0.309016943 0.95105648 4.50997817e-08
vn 0.49999994 0.688191235 -0.525730848
vn 0 0.894427299 -0.447213382
vn 0.525731266 0.723606825 0.447213501
vn 0.809016943 0.587785304 8.48936992e-08
vn 0.309016943 0.95105648 4.50997817e-08
vn 0.809016943 0.587785304 8.48936992e-08
vn 0.49999994 0.688191235 -0.525730848
vn 0.309016943 0.95105648 4.50997817e-08
vn 0.309016943 0.95105648 4.50997817e-08
vn 0 0.894427299 -0.447213382
vn -0.309016943 0.95105648 4.50997817e-08
vn 0 0.850650966 0.525730908
vn -0.309016943 0.95105648 4.50997817e-08
vn -0.525731266 0.723606825 0.447213501
vn 0.525731266 0.723606825 0.447213501
vn 0.309016943 0.95105648 4.50997817e-08
vn 0 0.850650966 0.525730908
vn 0.309016943 0.95105648 4.50997817e-08
vn -0.309016943 0.95105648 4.50997817e-08
vn 0 0.850650966 0.525730908
vn -0.809016943 0.587785304 8.48936992e-08
vn -0.850650787 0.276393592 -0.447213292
vn -1 0 -2.65292832e-09
vn -0.809017181 0.262865394 0.525730908
vn -1 0 -2.65292832e-09
vn -0.850650847 -0.276393622 0.447213382
vn -0.525731266 0.723606825 0.447213501
vn -0.809016943 0.587785304 8.48936992e-08
vn -0.809017181 0.262865394 0.525730908
vn -0.809016943 0.587785304 8.48936992e-08
vn -1 0 -2.65292832e-09
vn -0.809017181 0.262865394 0.525730908
vn -0.809016943 -0.587785363 -8.22407742e-08
vn -0.525731266 -0.723606825 -0.447213501
vn -0.309016943 -0.95105654 -3.97939282e-08
vn -0.49999994 -0.688191235 0.525730848
vn -0.309016943 -0.95105654 -3.97939282e-08
vn 0 -0.894427299 0.447213382
vn -0.850650847 -0.276393622 0.447213382
vn -0.809016943 -0.587785363 -8.22407742e-08
vn -0.49999994 -0.688191235 0.525730848
vn -0.809016943 -0.587785363 -8.22407742e-08
vn -0.309016943 -0.95105654 -3.97939282e-08
vn -0.49999994 -0.688191235 0.525730848
vn 0.309016943 -0.95105654 -3.97939282e-08
vn 0.525731266 -0.723606825 -0.447213501
vn 0.809016943 -0.587785363 -8.22407742e-08
vn 0.49999994 -0.688191235 0.525730848
vn 0.809016943 -0.587785363 -8.22407742e-08
vn 0.850650847 -0.276393622 0.447213382
vn 0 -0.894427299 0.447213382
vn 0.309016943 -0.95105654 -3.97939282e-08
vn 0.49999994 -0.688191235 0.525730848
vn 0.309016943 -0.95105654 -3.97939282e-08
vn 0.809016943 -0.587785363 -8.22407742e-08
vn 0.49999994 -0.688191235 0.525730848
vn 1 0 -2.65292832e-09
vn 0.850650787 0.276393592 -0.447213292
vn 0.809016943 0.587785304 8.48936992e-08
vn 0.809017181 0.262865394 0.525730908
vn 0.809016943 0.587785304 8.48936992e-08
vn 0.525731266 0.723606825 0.447213501
vn 0.850650847 -0.276393622 0.447213382
vn 1 0 -2.65292832e-09
vn 0.809017181 0.262865394 0.525730908
vn 1 0 -2.65292832e-09
vn 0.809016943 0.587785304 8.48936992e-08
vn 0.809017181 0.262865394 0.525730908
vn -0.309017062 0.425325423 0.850650787
vn 5.25619104e-09 -1.31404776e-09 1
vn 0.309017062 0.425325423 0.850650787
vn 0 0.850650966 0.525730908
vn 0.309017062 0.425325423 0.850650787
vn 0.525731266 0.723606825 0.447213501
vn -0.525731266 0.723606825 0.447213501
vn -0.309017062 0.425325423 0.850650787
vn 0 0.850650966 0.525730908
vn -0.309017062 0.425325423 0.850650787
vn 0.309017062 0.425325423 0.850650787
vn 0 0.850650966 0.525730908
vn 0.309017062 0.425325423 0.850650787
vn 5.25619104e-09 -1.31404776e-09 1
vn 0.50000006 -0.162460059 0.850650728
vn 0.809017181 0.262865394 0.525730908
vn 0.50000006 -0.162460059 0.850650728
vn 0.850650847 -0.276393622 0.447213382
vn 0.525731266 0.723606825 0.447213501
vn 0.309017062 0.425325423 0.850650787
vn 0.809017181 0.262865394 0.525730908
vn 0.309017062 0.425325423 0.850650787
vn 0.50000006 -0.162460059 0.850650728
vn 0.809017181 0.262865394 0.525730908
vn 0.50000006 -0.162460059 0.850650728
vn 5.25619104e-09 -1.31404776e-09 1
vn -5.30585753e-09 -0.525731266 0.850650609
vn 0.49999994 -0.688191235 0.525730848
vn -5.30585753e-09 -0.525731266 0.850650609
vn 0 -0.894427299 0.447213382
vn 0.850650847 -0.276393622 0.447213382
vn 0.50000006 -0.162460059 0.850650728
vn 0.49999994 -0.688191235 0.525730848
vn 0.50000006 -0.162460059 0.850650728
vn -5.30585753e-09 -0.525731266 0.850650609
vn 0.49999994 -0.688191235 0.525730848
vn -5.30585753e-09 -0.525731266 0.850650609
vn 5.25619104e-09 -1.31404776e-09 1
vn -0.50000006 -0.162460059 0.850650728
vn -0.49999994 -0.688191235 0.525730848
vn -0.50000006 -0.162460059 0.850650728
vn -0.850650847 -0.276393622 0.447213382
vn 0 -0.894427299 0.447213382
vn -5.30585753e-09 -0.525731266 0.850650609
vn -0.49999994 -0.688191235 0.525730848
vn -5.30585753e-09 -0.525731266 0.850650609
vn -0.50000006 -0.162460059 0.850650728
vn -0.49999994 -0.688191235 0.525730848
vn -0.50000006 -0.162460059 0.850650728
vn 5.25619104e-09 -1.31404776e-09 1
vn -0.309017062 0.425325423 0.850650787
vn -0.809017181 0.262865394 0.525730908
vn -0.309017062 0.425325423 0.850650787
vn -0.525731266 0.723606825 0.447213501
vn -0.850650847 -0.276393622 0.447213382
vn -0.50000006 -0.162460059 0.850650728
vn -0.809017181 0.262865394 0.525730908
vn -0.50000006 -0.162460059 0.850650728
vn -0.309017062 0.425325423 0.850650787
vn -0.809017181 0.262865394 0.525730908
g 
usemtl /obj/file1/uvquickshade2/shop_definition/texture_material
f 3/1/1 1/2/2 2/3/3
f 5/4/4 2/3/5 4/5/6
f 6/6/7 3/7/8 5/8/9
f 3/1/10 2/3/11 5/4/12
f 7/9/13 1/2/14 3/1/15
f 8/10/16 3/7/17 6/6/18
f 9/11/19 7/12/20 8/10/21
f 7/12/22 3/7/23 8/10/24
f 10/13/25 1/2/26 7/9/27
f 11/14/28 7/12/29 9/11/30
f 12/15/31 10/13/32 11/16/33
f 10/13/34 7/9/35 11/16/36
f 13/17/37 1/2/38 10/13/39
f 14/18/40 10/13/41 12/15/42
f 15/19/43 13/17/44 14/18/45
f 13/17/46 10/13/47 14/18/48
f 2/3/49 1/2/50 13/17/51
f 16/20/52 13/17/53 15/19/54
f 4/5/55 2/3/56 16/20/57
f 2/3/58 13/17/59 16/20/60
f 17/21/61 4/5/62 16/20/63
f 18/22/64 16/20/65 15/19/66
f 19/23/67 17/21/68 18/22/69
f 17/21/70 16/20/71 18/22/72
f 20/24/73 15/19/74 14/18/75
f 21/25/76 14/18/77 12/15/78
f 22/26/79 20/24/80 21/25/81
f 20/24/82 14/18/83 21/25/84
f 23/27/85 12/15/86 11/16/87
f 24/28/88 11/14/89 9/11/90
f 25/29/91 23/30/92 24/28/93
f 23/30/94 11/14/95 24/28/96
f 26/31/97 9/11/98 8/10/99
f 27/32/100 8/10/101 6/6/102
f 28/33/103 26/31/104 27/32/105
f 26/31/106 8/10/107 27/32/108
f 29/34/109 6/6/110 5/8/111
f 30/35/112 5/4/113 4/5/114
f 31/36/115 29/34/116 30/37/117
f 29/34/118 5/8/119 30/37/120
f 30/35/121 4/5/122 17/21/123
f 32/38/124 17/21/125 19/23/126
f 31/36/127 30/37/128 32/39/129
f 30/35/130 17/21/131 32/38/132
f 18/22/133 15/19/134 20/24/135
f 33/40/136 20/24/137 22/26/138
f 19/23/139 18/22/140 33/40/141
f 18/22/142 20/24/143 33/40/144
f 21/25/145 12/15/146 23/27/147
f 34/41/148 23/30/149 25/29/150
f 22/26/151 21/25/152 34/41/153
f 21/25/154 23/27/155 34/41/156
f 24/28/157 9/11/158 26/31/159
f 35/42/160 26/31/161 28/33/162
f 25/29/163 24/28/164 35/42/165
f 24/28/166 26/31/167 35/42/168
f 27/32/169 6/6/170 29/34/171
f 36/43/172 29/34/173 31/36/174
f 28/33/175 27/32/176 36/43/177
f 27/32/178 29/34/179 36/43/180
f 39/44/181 37/45/182 38/46/183
f 32/39/184 38/46/185 31/36/186
f 19/23/187 39/47/188 32/38/189
f 39/44/190 38/46/191 32/39/192
f 38/46/193 37/45/194 40/48/195
f 36/43/196 40/48/197 28/33/198
f 31/36/199 38/46/200 36/43/201
f 38/46/202 40/48/203 36/43/204
f 40/48/205 37/45/206 41/49/207
f 35/42/208 41/49/209 25/29/210
f 28/33/211 40/48/212 35/42/213
f 40/48/214 41/49/215 35/42/216
f 41/49/217 37/45/218 42/50/219
f 34/41/220 42/50/221 22/26/222
f 25/29/223 41/49/224 34/41/225
f 41/49/226 42/50/227 34/41/228
f 42/50/229 37/45/230 39/44/231
f 33/40/232 39/47/233 19/23/234
f 22/26/235 42/50/236 33/40/237
f 42/50/238 39/47/239 33/40/240
